<?xml version="1.0" encoding="UTF-8"?>
<!DOCTYPE svg PUBLIC "-//W3C//DTD SVG 1.1//EN" "http://www.w3.org/Graphics/SVG/1.1/DTD/svg11.dtd">
<svg xmlns="http://www.w3.org/2000/svg" version="1.1" width="500px" height="500px" style="shape-rendering:geometricPrecision; text-rendering:geometricPrecision; image-rendering:optimizeQuality; fill-rule:evenodd; clip-rule:evenodd" xmlns:xlink="http://www.w3.org/1999/xlink">
<g><path style="opacity:0.552" fill="#939393" d="M 391.5,72.5 C 391.5,71.5 391.5,70.5 391.5,69.5C 293.833,69.5 196.167,69.5 98.5,69.5C 98.9175,68.7784 99.5842,68.2784 100.5,68C 197.833,67.3333 295.167,67.3333 392.5,68C 393.553,69.7493 393.22,71.2493 391.5,72.5 Z"/></g>
<g><path style="opacity:0.999" fill="#fefefe" d="M 98.5,69.5 C 196.167,69.5 293.833,69.5 391.5,69.5C 391.5,70.5 391.5,71.5 391.5,72.5C 390.094,72.9731 389.427,73.9731 389.5,75.5C 387.554,76.0347 386.554,77.368 386.5,79.5C 385.094,79.9731 384.427,80.9731 384.5,82.5C 384.25,84.674 383.25,86.3406 381.5,87.5C 376.545,88.5709 374.212,91.9043 374.5,97.5C 374.672,98.4916 374.338,99.1583 373.5,99.5C 371.204,100.733 369.87,102.733 369.5,105.5C 368.094,105.973 367.427,106.973 367.5,108.5C 364.723,110.951 362.723,113.951 361.5,117.5C 360.925,119.411 359.925,121.078 358.5,122.5C 355.736,123.948 354.069,126.281 353.5,129.5C 352.737,131.368 351.737,133.035 350.5,134.5C 350.565,134.062 350.399,133.728 350,133.5C 348.59,134.787 347.09,135.954 345.5,137C 346.609,138.813 345.942,139.646 343.5,139.5C 343.483,141.565 343.15,143.565 342.5,145.5C 341.094,145.973 340.427,146.973 340.5,148.5C 258.237,149.497 175.904,149.83 93.5,149.5C 92.5025,126.339 92.1691,103.006 92.5,79.5C 92.5,78.5 92.5,77.5 92.5,76.5C 92.5,75.1667 92.5,73.8333 92.5,72.5C 94.0326,70.7549 96.0326,69.7549 98.5,69.5 Z"/></g>
<g><path style="opacity:0.584" fill="#353535" d="M 92.5,72.5 C 92.5,73.8333 92.5,75.1667 92.5,76.5C 89.8333,75.1667 89.8333,73.8333 92.5,72.5 Z"/></g>
<g><path style="opacity:0.086" fill="#4e4e4e" d="M 404.5,72.5 C 403.833,72.8333 403.167,73.1667 402.5,73.5C 402.75,72.0779 403.583,71.0779 405,70.5C 405.692,71.4368 405.525,72.1034 404.5,72.5 Z"/></g>
<g><path style="opacity:0.016" fill="#666666" d="M 391.5,72.5 C 391.573,74.0269 390.906,75.0269 389.5,75.5C 389.427,73.9731 390.094,72.9731 391.5,72.5 Z"/></g>
<g><path style="opacity:0.098" fill="#6f6f6f" d="M 389.5,75.5 C 388.974,77.2303 387.974,78.5637 386.5,79.5C 386.554,77.368 387.554,76.0347 389.5,75.5 Z"/></g>
<g><path style="opacity:0.176" fill="#585858" d="M 402.5,73.5 C 401.241,77.0246 399.241,80.0246 396.5,82.5C 397.723,78.9505 399.723,75.9505 402.5,73.5 Z"/></g>
<g><path style="opacity:0.999" fill="#fdfdfd" d="M 404.5,72.5 C 405.352,75.497 405.018,78.497 403.5,81.5C 402.883,81.6107 402.383,81.944 402,82.5C 397.63,95.9008 394.463,109.567 392.5,123.5C 390.96,125.838 390.294,128.505 390.5,131.5C 390.768,133.099 390.434,134.432 389.5,135.5C 388.883,135.611 388.383,135.944 388,136.5C 386.957,139.757 386.457,143.09 386.5,146.5C 384.777,148.78 384.111,151.447 384.5,154.5C 381.887,158.986 380.554,163.986 380.5,169.5C 378.31,173.353 377.644,177.353 378.5,181.5C 378.167,182.167 377.833,182.833 377.5,183.5C 375.59,186.452 374.59,189.786 374.5,193.5C 374.5,193.833 374.5,194.167 374.5,194.5C 371.444,201.717 369.444,209.384 368.5,217.5C 367.883,217.611 367.383,217.944 367,218.5C 365.842,223.457 365.008,228.457 364.5,233.5C 364.784,235.415 364.451,237.081 363.5,238.5C 361.742,241.854 360.742,245.521 360.5,249.5C 359.819,251.158 358.985,252.825 358,254.5C 355.3,267.622 352.467,280.622 349.5,293.5C 349.768,295.099 349.434,296.432 348.5,297.5C 347.153,300.663 345.986,303.996 345,307.5C 338.578,304.039 332.078,300.706 325.5,297.5C 324.893,297.624 324.56,297.957 324.5,298.5C 323.833,298.5 323.5,298.167 323.5,297.5C 323.631,296.624 323.298,295.957 322.5,295.5C 319.145,294.154 315.812,292.82 312.5,291.5C 305.516,288.675 298.849,285.341 292.5,281.5C 291.486,280.326 290.153,279.66 288.5,279.5C 287.053,278.115 286.053,278.448 285.5,280.5C 285.34,282.153 284.674,283.486 283.5,284.5C 281.72,285.99 281.054,287.99 281.5,290.5C 279.72,291.99 279.054,293.99 279.5,296.5C 276.521,301.909 274.187,307.743 272.5,314C 272.57,314.765 272.903,315.265 273.5,315.5C 273.5,316.167 273.167,316.5 272.5,316.5C 269.148,321.21 267.148,326.543 266.5,332.5C 263.828,334.391 262.828,337.058 263.5,340.5C 261.962,343.849 260.129,347.182 258,350.5C 257.505,352.473 257.338,354.473 257.5,356.5C 257.233,358.965 256.566,361.299 255.5,363.5C 253.552,365.32 252.552,367.654 252.5,370.5C 248.704,377.544 246.038,385.211 244.5,393.5C 242.144,395.557 241.144,398.224 241.5,401.5C 241.5,401.833 241.5,402.167 241.5,402.5C 240.069,402.881 239.236,403.881 239,405.5C 238.235,407.066 238.402,408.399 239.5,409.5C 239.068,410.71 238.401,411.71 237.5,412.5C 236.466,413.687 235.133,414.52 233.5,415C 233.906,419.995 232.906,424.828 230.5,429.5C 185.167,429.5 139.833,429.5 94.5,429.5C 94.5,428.5 94.5,427.5 94.5,426.5C 96.2503,425.341 97.2503,423.674 97.5,421.5C 98.9063,421.027 99.573,420.027 99.5,418.5C 100.906,418.027 101.573,417.027 101.5,415.5C 103.588,413.664 104.921,411.331 105.5,408.5C 105.75,406.326 106.75,404.659 108.5,403.5C 110.25,402.341 111.25,400.674 111.5,398.5C 112.906,398.027 113.573,397.027 113.5,395.5C 115.97,392.58 117.97,389.246 119.5,385.5C 122.502,382.839 124.502,379.505 125.5,375.5C 128.741,372.968 130.741,369.635 131.5,365.5C 134.952,361.701 137.618,357.368 139.5,352.5C 142.682,350.754 144.349,348.087 144.5,344.5C 145.885,343.426 147.051,342.093 148,340.5C 148.667,341.167 149.333,341.833 150,342.5C 149.895,339.231 150.395,335.897 151.5,332.5C 152.906,332.027 153.573,331.027 153.5,329.5C 153.328,328.508 153.662,327.842 154.5,327.5C 155.906,327.027 156.573,326.027 156.5,324.5C 158.25,323.341 159.25,321.674 159.5,319.5C 161.25,318.341 162.25,316.674 162.5,314.5C 163.496,314.586 164.329,314.252 165,313.5C 166.664,310.673 167.83,307.673 168.5,304.5C 169.721,303.972 170.887,303.305 172,302.5C 172.333,302.833 172.667,303.167 173,303.5C 173.497,301.19 173.663,298.857 173.5,296.5C 175.931,294.954 177.264,292.621 177.5,289.5C 178.906,289.027 179.573,288.027 179.5,286.5C 181.559,284.74 182.892,282.406 183.5,279.5C 186.682,277.754 188.349,275.087 188.5,271.5C 191.667,267.997 194,263.997 195.5,259.5C 196.906,259.027 197.573,258.027 197.5,256.5C 201.695,254.675 203.695,251.342 203.5,246.5C 206,243.506 208,240.173 209.5,236.5C 212.502,233.839 214.502,230.505 215.5,226.5C 218.502,223.839 220.502,220.505 221.5,216.5C 224.893,215.061 226.56,212.394 226.5,208.5C 228.408,207.514 229.408,205.848 229.5,203.5C 229.427,201.973 230.094,200.973 231.5,200.5C 233.588,198.664 234.921,196.331 235.5,193.5C 236.906,193.027 237.573,192.027 237.5,190.5C 239.559,188.74 240.892,186.406 241.5,183.5C 244.682,181.754 246.349,179.087 246.5,175.5C 248.255,173.012 250.255,170.678 252.5,168.5C 253.309,166.929 253.643,165.262 253.5,163.5C 256.833,164.833 260.167,166.167 263.5,167.5C 264.492,167.328 265.158,167.662 265.5,168.5C 267.336,170.588 269.669,171.921 272.5,172.5C 274.336,174.588 276.669,175.921 279.5,176.5C 281.336,178.588 283.669,179.921 286.5,180.5C 296.327,186.153 305.827,192.153 315,198.5C 315.383,197.944 315.883,197.611 316.5,197.5C 316.833,197.5 317.167,197.5 317.5,197.5C 318.251,198.573 319.251,198.74 320.5,198C 322.568,195.358 324.235,192.525 325.5,189.5C 327.822,188.198 329.155,186.198 329.5,183.5C 332.66,179.852 335.327,175.852 337.5,171.5C 338.906,171.027 339.573,170.027 339.5,168.5C 342.209,166.097 344.209,163.097 345.5,159.5C 346.34,157.147 347.674,155.147 349.5,153.5C 350.906,153.027 351.573,152.027 351.5,150.5C 355.431,147.429 358.098,143.429 359.5,138.5C 360.906,138.027 361.573,137.027 361.5,135.5C 362.906,135.027 363.573,134.027 363.5,132.5C 364.906,132.027 365.573,131.027 365.5,129.5C 366.906,129.027 367.573,128.027 367.5,126.5C 368.906,126.027 369.573,125.027 369.5,123.5C 371.822,122.198 373.155,120.198 373.5,117.5C 375.326,115.853 376.66,113.853 377.5,111.5C 377.845,108.802 379.178,106.802 381.5,105.5C 383.326,103.853 384.66,101.853 385.5,99.5C 387.369,97.9663 388.702,95.9663 389.5,93.5C 391.326,91.8525 392.66,89.8525 393.5,87.5C 395.25,86.3406 396.25,84.674 396.5,82.5C 399.241,80.0246 401.241,77.0246 402.5,73.5C 403.167,73.1667 403.833,72.8333 404.5,72.5 Z"/></g>
<g><path style="opacity:0.102" fill="#616161" d="M 386.5,79.5 C 386.573,81.0269 385.906,82.0269 384.5,82.5C 384.427,80.9731 385.094,79.9731 386.5,79.5 Z"/></g>
<g><path style="opacity:0.153" fill="#5a5a5a" d="M 396.5,82.5 C 396.25,84.674 395.25,86.3406 393.5,87.5C 393.75,85.326 394.75,83.6594 396.5,82.5 Z"/></g>
<g><path style="opacity:0.224" fill="#777777" d="M 393.5,87.5 C 392.66,89.8525 391.326,91.8525 389.5,93.5C 389.845,90.8021 391.178,88.8021 393.5,87.5 Z"/></g>
<g><path style="opacity:0.924" fill="#b3b3b3" d="M 381.5,87.5 C 379.646,91.2208 377.313,94.5541 374.5,97.5C 374.212,91.9043 376.545,88.5709 381.5,87.5 Z"/></g>
<g><path style="opacity:0.784" fill="#909090" d="M 389.5,93.5 C 388.702,95.9663 387.369,97.9663 385.5,99.5C 385.845,96.8021 387.178,94.8021 389.5,93.5 Z"/></g>
<g><path style="opacity:0.263" fill="#767676" d="M 385.5,99.5 C 384.66,101.853 383.326,103.853 381.5,105.5C 381.845,102.802 383.178,100.802 385.5,99.5 Z"/></g>
<g><path style="opacity:0.075" fill="#6a6a6a" d="M 373.5,99.5 C 372.649,101.882 371.316,103.882 369.5,105.5C 369.87,102.733 371.204,100.733 373.5,99.5 Z"/></g>
<g><path style="opacity:0.086" fill="#565656" d="M 369.5,105.5 C 369.573,107.027 368.906,108.027 367.5,108.5C 367.427,106.973 368.094,105.973 369.5,105.5 Z"/></g>
<g><path style="opacity:0.016" fill="#686868" d="M 367.5,108.5 C 366.241,112.025 364.241,115.025 361.5,117.5C 362.723,113.951 364.723,110.951 367.5,108.5 Z"/></g>
<g><path style="opacity:0.22" fill="#767676" d="M 377.5,111.5 C 376.66,113.853 375.326,115.853 373.5,117.5C 373.845,114.802 375.178,112.802 377.5,111.5 Z"/></g>
<g><path style="opacity:0.11" fill="#7b7b7b" d="M 403.5,81.5 C 400.122,95.684 396.455,109.684 392.5,123.5C 394.463,109.567 397.63,95.9008 402,82.5C 402.383,81.944 402.883,81.6107 403.5,81.5 Z"/></g>
<g><path style="opacity:0.165" fill="#797979" d="M 373.5,117.5 C 373.155,120.198 371.822,122.198 369.5,123.5C 370.34,121.147 371.674,119.147 373.5,117.5 Z"/></g>
<g><path style="opacity:0.188" fill="#636363" d="M 369.5,123.5 C 369.573,125.027 368.906,126.027 367.5,126.5C 367.427,124.973 368.094,123.973 369.5,123.5 Z"/></g>
<g><path style="opacity:0.082" fill="#5d5d5d" d="M 358.5,122.5 C 357.189,125.135 355.522,127.469 353.5,129.5C 354.069,126.281 355.736,123.948 358.5,122.5 Z"/></g>
<g><path style="opacity:0.031" fill="#5e5e5e" d="M 392.5,123.5 C 392.435,126.428 391.768,129.095 390.5,131.5C 390.294,128.505 390.96,125.838 392.5,123.5 Z"/></g>
<g><path style="opacity:0.184" fill="#6e6e6e" d="M 367.5,126.5 C 367.573,128.027 366.906,129.027 365.5,129.5C 365.427,127.973 366.094,126.973 367.5,126.5 Z"/></g>
<g><path style="opacity:0.322" fill="#717171" d="M 365.5,129.5 C 365.573,131.027 364.906,132.027 363.5,132.5C 363.427,130.973 364.094,129.973 365.5,129.5 Z"/></g>
<g><path style="opacity:0.161" fill="#656565" d="M 363.5,132.5 C 363.573,134.027 362.906,135.027 361.5,135.5C 361.427,133.973 362.094,132.973 363.5,132.5 Z"/></g>
<g><path style="opacity:0.8" fill="#a5a5a5" d="M 350.5,134.5 C 348.555,138.736 345.888,142.403 342.5,145.5C 343.15,143.565 343.483,141.565 343.5,139.5C 345.942,139.646 346.609,138.813 345.5,137C 347.09,135.954 348.59,134.787 350,133.5C 350.399,133.728 350.565,134.062 350.5,134.5 Z"/></g>
<g><path style="opacity:0.161" fill="#6f6f6f" d="M 361.5,135.5 C 361.573,137.027 360.906,138.027 359.5,138.5C 359.427,136.973 360.094,135.973 361.5,135.5 Z"/></g>
<g><path style="opacity:0.424" fill="#8d8d8d" d="M 389.5,135.5 C 389.118,139.446 388.118,143.112 386.5,146.5C 386.457,143.09 386.957,139.757 388,136.5C 388.383,135.944 388.883,135.611 389.5,135.5 Z"/></g>
<g><path style="opacity:0.047" fill="#737373" d="M 342.5,145.5 C 342.573,147.027 341.906,148.027 340.5,148.5C 340.427,146.973 341.094,145.973 342.5,145.5 Z"/></g>
<g><path style="opacity:0.871" fill="#9f9f9f" d="M 359.5,138.5 C 358.098,143.429 355.431,147.429 351.5,150.5C 353.673,146.148 356.34,142.148 359.5,138.5 Z"/></g>
<g><path style="opacity:0.473" fill="#a8a8a8" d="M 340.5,148.5 C 340.573,150.027 339.906,151.027 338.5,151.5C 256.833,150.833 175.167,150.167 93.5,149.5C 175.904,149.83 258.237,149.497 340.5,148.5 Z"/></g>
<g><path style="opacity:0.027" fill="#787878" d="M 386.5,146.5 C 386.435,149.428 385.768,152.095 384.5,154.5C 384.111,151.447 384.777,148.78 386.5,146.5 Z"/></g>
<g><path style="opacity:0.051" fill="#444444" d="M 92.5,79.5 C 92.1691,103.006 92.5025,126.339 93.5,149.5C 175.167,150.167 256.833,150.833 338.5,151.5C 256.499,151.667 174.499,151.5 92.5,151C 91.1686,127.069 91.1686,103.236 92.5,79.5 Z"/></g>
<g><path style="opacity:0.263" fill="#767676" d="M 351.5,150.5 C 351.573,152.027 350.906,153.027 349.5,153.5C 349.427,151.973 350.094,150.973 351.5,150.5 Z"/></g>
<g><path style="opacity:0.794" fill="#8c8c8c" d="M 384.5,154.5 C 383.924,159.809 382.591,164.809 380.5,169.5C 380.554,163.986 381.887,158.986 384.5,154.5 Z"/></g>
<g><path style="opacity:0.349" fill="#646464" d="M 253.5,163.5 C 254.601,162.402 255.934,162.235 257.5,163C 259.747,164.277 261.747,165.777 263.5,167.5C 260.167,166.167 256.833,164.833 253.5,163.5 Z"/></g>
<g><path style="opacity:0.173" fill="#7c7c7c" d="M 345.5,159.5 C 344.209,163.097 342.209,166.097 339.5,168.5C 340.723,164.951 342.723,161.951 345.5,159.5 Z"/></g>
<g><path style="opacity:0.137" fill="#5e5e5e" d="M 265.5,168.5 C 268.331,169.079 270.664,170.412 272.5,172.5C 269.669,171.921 267.336,170.588 265.5,168.5 Z"/></g>
<g><path style="opacity:0.173" fill="#646464" d="M 339.5,168.5 C 339.573,170.027 338.906,171.027 337.5,171.5C 337.427,169.973 338.094,168.973 339.5,168.5 Z"/></g>
<g><path style="opacity:0.141" fill="#727272" d="M 253.5,163.5 C 253.643,165.262 253.309,166.929 252.5,168.5C 250.255,170.678 248.255,173.012 246.5,175.5C 248.043,170.976 250.377,166.976 253.5,163.5 Z"/></g>
<g><path style="opacity:0.149" fill="#5c5c5c" d="M 272.5,172.5 C 275.331,173.079 277.664,174.412 279.5,176.5C 276.669,175.921 274.336,174.588 272.5,172.5 Z"/></g>
<g><path style="opacity:0.161" fill="#747474" d="M 337.5,171.5 C 335.327,175.852 332.66,179.852 329.5,183.5C 331.178,178.803 333.844,174.803 337.5,171.5 Z"/></g>
<g><path style="opacity:0.18" fill="#7e7e7e" d="M 380.5,169.5 C 380.042,173.538 379.376,177.538 378.5,181.5C 377.644,177.353 378.31,173.353 380.5,169.5 Z"/></g>
<g><path style="opacity:0.027" fill="#6e6e6e" d="M 279.5,176.5 C 282.331,177.079 284.664,178.412 286.5,180.5C 283.669,179.921 281.336,178.588 279.5,176.5 Z"/></g>
<g><path style="opacity:0.776" fill="#949494" d="M 246.5,175.5 C 246.349,179.087 244.682,181.754 241.5,183.5C 242.383,180.296 244.05,177.629 246.5,175.5 Z"/></g>
<g><path style="opacity:0.22" fill="#878787" d="M 286.5,180.5 C 297.114,185.139 307.114,190.805 316.5,197.5C 315.883,197.611 315.383,197.944 315,198.5C 305.827,192.153 296.327,186.153 286.5,180.5 Z"/></g>
<g><path style="opacity:0.184" fill="#6b6b6b" d="M 329.5,183.5 C 329.155,186.198 327.822,188.198 325.5,189.5C 326.34,187.147 327.674,185.147 329.5,183.5 Z"/></g>
<g><path style="opacity:0.745" fill="#888888" d="M 241.5,183.5 C 240.892,186.406 239.559,188.74 237.5,190.5C 238.079,187.669 239.412,185.336 241.5,183.5 Z"/></g>
<g><path style="opacity:0.157" fill="#8d8d8d" d="M 377.5,183.5 C 377.101,187.116 376.101,190.45 374.5,193.5C 374.59,189.786 375.59,186.452 377.5,183.5 Z"/></g>
<g><path style="opacity:0.192" fill="#6a6a6a" d="M 325.5,189.5 C 324.235,192.525 322.568,195.358 320.5,198C 319.251,198.74 318.251,198.573 317.5,197.5C 318.239,197.631 318.906,197.464 319.5,197C 321.159,194.156 323.159,191.656 325.5,189.5 Z"/></g>
<g><path style="opacity:0.118" fill="#5a5a5a" d="M 237.5,190.5 C 237.573,192.027 236.906,193.027 235.5,193.5C 235.427,191.973 236.094,190.973 237.5,190.5 Z"/></g>
<g><path style="opacity:0.086" fill="#636363" d="M 235.5,193.5 C 234.921,196.331 233.588,198.664 231.5,200.5C 232.079,197.669 233.412,195.336 235.5,193.5 Z"/></g>
<g><path style="opacity:0.173" fill="#858585" d="M 374.5,194.5 C 372.943,202.398 370.943,210.065 368.5,217.5C 369.444,209.384 371.444,201.717 374.5,194.5 Z"/></g>
<g><path style="opacity:0.761" fill="#838383" d="M 229.5,203.5 C 229.408,205.848 228.408,207.514 226.5,208.5C 226.75,206.326 227.75,204.659 229.5,203.5 Z"/></g>
<g><path style="opacity:0.804" fill="#9a9a9a" d="M 226.5,208.5 C 226.56,212.394 224.893,215.061 221.5,216.5C 222.669,213.489 224.336,210.822 226.5,208.5 Z"/></g>
<g><path style="opacity:0.71" fill="#949494" d="M 368.5,217.5 C 367.77,223.085 366.437,228.418 364.5,233.5C 365.008,228.457 365.842,223.457 367,218.5C 367.383,217.944 367.883,217.611 368.5,217.5 Z"/></g>
<g><path style="opacity:0.176" fill="#7d7d7d" d="M 221.5,216.5 C 220.502,220.505 218.502,223.839 215.5,226.5C 217,222.827 219,219.494 221.5,216.5 Z"/></g>
<g><path style="opacity:0.18" fill="#616161" d="M 215.5,226.5 C 214.502,230.505 212.502,233.839 209.5,236.5C 211,232.827 213,229.494 215.5,226.5 Z"/></g>
<g><path style="opacity:0.204" fill="#707070" d="M 209.5,236.5 C 208,240.173 206,243.506 203.5,246.5C 204.498,242.495 206.498,239.161 209.5,236.5 Z"/></g>
<g><path style="opacity:0.063" fill="#505050" d="M 363.5,238.5 C 363.258,242.479 362.258,246.146 360.5,249.5C 360.742,245.521 361.742,241.854 363.5,238.5 Z"/></g>
<g><path style="opacity:0.961" fill="#b1b1b1" d="M 203.5,246.5 C 203.695,251.342 201.695,254.675 197.5,256.5C 199,252.827 201,249.494 203.5,246.5 Z"/></g>
<g><path style="opacity:0.208" fill="#646464" d="M 197.5,256.5 C 197.573,258.027 196.906,259.027 195.5,259.5C 195.427,257.973 196.094,256.973 197.5,256.5 Z"/></g>
<g><path style="opacity:0.235" fill="#818181" d="M 195.5,259.5 C 194,263.997 191.667,267.997 188.5,271.5C 190.043,266.976 192.377,262.976 195.5,259.5 Z"/></g>
<g><path style="opacity:0.153" fill="#858585" d="M 360.5,249.5 C 357.752,264.493 354.085,279.159 349.5,293.5C 352.467,280.622 355.3,267.622 358,254.5C 358.985,252.825 359.819,251.158 360.5,249.5 Z"/></g>
<g><path style="opacity:0.773" fill="#9c9c9c" d="M 188.5,271.5 C 188.349,275.087 186.682,277.754 183.5,279.5C 184.383,276.296 186.05,273.629 188.5,271.5 Z"/></g>
<g><path style="opacity:0.102" fill="#3e3e3e" d="M 288.5,279.5 C 287.391,279.557 286.391,279.89 285.5,280.5C 286.053,278.448 287.053,278.115 288.5,279.5 Z"/></g>
<g><path style="opacity:0.176" fill="#686868" d="M 288.5,279.5 C 290.153,279.66 291.486,280.326 292.5,281.5C 290.62,281.771 289.287,281.104 288.5,279.5 Z"/></g>
<g><path style="opacity:0.769" fill="#959595" d="M 183.5,279.5 C 182.892,282.406 181.559,284.74 179.5,286.5C 180.079,283.669 181.412,281.336 183.5,279.5 Z"/></g>
<g><path style="opacity:0.408" fill="#9c9c9c" d="M 283.5,284.5 C 283.405,286.786 282.738,288.786 281.5,290.5C 281.054,287.99 281.72,285.99 283.5,284.5 Z"/></g>
<g><path style="opacity:0.118" fill="#666666" d="M 179.5,286.5 C 179.573,288.027 178.906,289.027 177.5,289.5C 177.427,287.973 178.094,286.973 179.5,286.5 Z"/></g>
<g><path style="opacity:0.31" fill="#979797" d="M 281.5,290.5 C 281.405,292.786 280.738,294.786 279.5,296.5C 279.054,293.99 279.72,291.99 281.5,290.5 Z"/></g>
<g><path style="opacity:0.71" fill="#8f8f8f" d="M 177.5,289.5 C 177.264,292.621 175.931,294.954 173.5,296.5C 174.079,293.669 175.412,291.336 177.5,289.5 Z"/></g>
<g><path style="opacity:0.235" fill="#6a6a6a" d="M 312.5,291.5 C 315.812,292.82 319.145,294.154 322.5,295.5C 323.298,295.957 323.631,296.624 323.5,297.5C 319.345,296.258 315.678,294.258 312.5,291.5 Z"/></g>
<g><path style="opacity:1" fill="#bdbdbd" d="M 173.5,296.5 C 173.663,298.857 173.497,301.19 173,303.5C 172.667,303.167 172.333,302.833 172,302.5C 170.887,303.305 169.721,303.972 168.5,304.5C 169.383,301.296 171.05,298.629 173.5,296.5 Z"/></g>
<g><path style="opacity:0.129" fill="#6e6e6e" d="M 279.5,296.5 C 277.504,302.822 275.504,309.156 273.5,315.5C 272.903,315.265 272.57,314.765 272.5,314C 274.187,307.743 276.521,301.909 279.5,296.5 Z"/></g>
<g><path style="opacity:0.012" fill="#535353" d="M 324.5,298.5 C 324.56,297.957 324.893,297.624 325.5,297.5C 332.078,300.706 338.578,304.039 345,307.5C 345.986,303.996 347.153,300.663 348.5,297.5C 349.014,301.788 347.847,305.455 345,308.5C 338.079,305.289 331.246,301.956 324.5,298.5 Z"/></g>
<g><path style="opacity:0.749" fill="#949494" d="M 168.5,304.5 C 167.83,307.673 166.664,310.673 165,313.5C 164.329,314.252 163.496,314.586 162.5,314.5C 164,310.827 166,307.494 168.5,304.5 Z"/></g>
<g><path style="opacity:0.153" fill="#6d6d6d" d="M 162.5,314.5 C 162.25,316.674 161.25,318.341 159.5,319.5C 159.75,317.326 160.75,315.659 162.5,314.5 Z"/></g>
<g><path style="opacity:0.114" fill="#6f6f6f" d="M 159.5,319.5 C 159.25,321.674 158.25,323.341 156.5,324.5C 156.75,322.326 157.75,320.659 159.5,319.5 Z"/></g>
<g><path style="opacity:0.047" fill="#747474" d="M 272.5,316.5 C 271.007,322.13 269.007,327.463 266.5,332.5C 267.148,326.543 269.148,321.21 272.5,316.5 Z"/></g>
<g><path style="opacity:0.141" fill="#585858" d="M 156.5,324.5 C 156.573,326.027 155.906,327.027 154.5,327.5C 154.427,325.973 155.094,324.973 156.5,324.5 Z"/></g>
<g><path style="opacity:0.122" fill="#757575" d="M 153.5,329.5 C 153.573,331.027 152.906,332.027 151.5,332.5C 151.427,330.973 152.094,329.973 153.5,329.5 Z"/></g>
<g><path style="opacity:0.753" fill="#a3a3a3" d="M 266.5,332.5 C 266.02,335.443 265.02,338.11 263.5,340.5C 262.828,337.058 263.828,334.391 266.5,332.5 Z"/></g>
<g><path style="opacity:0.975" fill="#b4b4b4" d="M 151.5,332.5 C 150.395,335.897 149.895,339.231 150,342.5C 149.333,341.833 148.667,341.167 148,340.5C 147.051,342.093 145.885,343.426 144.5,344.5C 146.043,339.976 148.377,335.976 151.5,332.5 Z"/></g>
<g><path style="opacity:0.373" fill="#a1a1a1" d="M 263.5,340.5 C 262.071,346.129 260.071,351.463 257.5,356.5C 257.338,354.473 257.505,352.473 258,350.5C 260.129,347.182 261.962,343.849 263.5,340.5 Z"/></g>
<g><path style="opacity:0.878" fill="#a3a3a3" d="M 144.5,344.5 C 144.349,348.087 142.682,350.754 139.5,352.5C 140.383,349.296 142.05,346.629 144.5,344.5 Z"/></g>
<g><path style="opacity:0.723" fill="#a4a4a4" d="M 405.5,430.5 C 405.5,430.167 405.5,429.833 405.5,429.5C 405.5,402.833 405.5,376.167 405.5,349.5C 360.833,349.5 316.167,349.5 271.5,349.5C 271.5,349.167 271.5,348.833 271.5,348.5C 315.998,347.335 360.665,347.169 405.5,348C 406.832,375.598 406.832,403.098 405.5,430.5 Z"/></g>
<g><path style="opacity:0.998" fill="#fefefe" d="M 271.5,349.5 C 316.167,349.5 360.833,349.5 405.5,349.5C 405.5,376.167 405.5,402.833 405.5,429.5C 351.5,429.5 297.5,429.5 243.5,429.5C 243.5,428.167 243.5,426.833 243.5,425.5C 244.458,425.047 245.292,424.381 246,423.5C 247.399,418.47 248.899,413.47 250.5,408.5C 250.457,407.584 250.124,406.917 249.5,406.5C 249.5,405.833 249.833,405.5 250.5,405.5C 253.032,402.764 254.365,399.43 254.5,395.5C 256.28,394.01 256.946,392.01 256.5,389.5C 258.041,388.442 259.041,386.942 259.5,385C 261.013,381.296 262.013,377.462 262.5,373.5C 264.074,371.898 264.741,369.898 264.5,367.5C 267.73,361.973 270.063,355.973 271.5,349.5 Z"/></g>
<g><path style="opacity:0.227" fill="#828282" d="M 139.5,352.5 C 137.618,357.368 134.952,361.701 131.5,365.5C 133.418,360.657 136.084,356.323 139.5,352.5 Z"/></g>
<g><path style="opacity:0.714" fill="#949494" d="M 271.5,348.5 C 271.5,348.833 271.5,349.167 271.5,349.5C 270.063,355.973 267.73,361.973 264.5,367.5C 266.035,360.784 268.368,354.45 271.5,348.5 Z"/></g>
<g><path style="opacity:0.149" fill="#6d6d6d" d="M 255.5,363.5 C 255.065,366.157 254.065,368.491 252.5,370.5C 252.552,367.654 253.552,365.32 255.5,363.5 Z"/></g>
<g><path style="opacity:0.259" fill="#828282" d="M 264.5,367.5 C 264.741,369.898 264.074,371.898 262.5,373.5C 262.259,371.102 262.926,369.102 264.5,367.5 Z"/></g>
<g><path style="opacity:0.192" fill="#858585" d="M 131.5,365.5 C 130.741,369.635 128.741,372.968 125.5,375.5C 127,371.827 129,368.494 131.5,365.5 Z"/></g>
<g><path style="opacity:0.859" fill="#929292" d="M 252.5,370.5 C 250.282,378.397 247.616,386.063 244.5,393.5C 246.038,385.211 248.704,377.544 252.5,370.5 Z"/></g>
<g><path style="opacity:0.322" fill="#a2a2a2" d="M 262.5,373.5 C 262.013,377.462 261.013,381.296 259.5,385C 259.041,386.942 258.041,388.442 256.5,389.5C 257.929,383.871 259.929,378.537 262.5,373.5 Z"/></g>
<g><path style="opacity:0.212" fill="#707070" d="M 125.5,375.5 C 124.502,379.505 122.502,382.839 119.5,385.5C 121,381.827 123,378.494 125.5,375.5 Z"/></g>
<g><path style="opacity:0.165" fill="#7a7a7a" d="M 119.5,385.5 C 117.97,389.246 115.97,392.58 113.5,395.5C 114.498,391.495 116.498,388.161 119.5,385.5 Z"/></g>
<g><path style="opacity:0.722" fill="#8e8e8e" d="M 256.5,389.5 C 256.946,392.01 256.28,394.01 254.5,395.5C 254.595,393.214 255.262,391.214 256.5,389.5 Z"/></g>
<g><path style="opacity:0.761" fill="#939393" d="M 244.5,393.5 C 244.02,396.443 243.02,399.11 241.5,401.5C 241.144,398.224 242.144,395.557 244.5,393.5 Z"/></g>
<g><path style="opacity:0.137" fill="#5b5b5b" d="M 113.5,395.5 C 113.573,397.027 112.906,398.027 111.5,398.5C 111.427,396.973 112.094,395.973 113.5,395.5 Z"/></g>
<g><path style="opacity:0.18" fill="#676767" d="M 111.5,398.5 C 111.25,400.674 110.25,402.341 108.5,403.5C 108.75,401.326 109.75,399.659 111.5,398.5 Z"/></g>
<g><path style="opacity:0.588" fill="#8a8a8a" d="M 254.5,395.5 C 254.365,399.43 253.032,402.764 250.5,405.5C 251.267,401.851 252.6,398.518 254.5,395.5 Z"/></g>
<g><path style="opacity:0.09" fill="#787878" d="M 241.5,402.5 C 240.833,404.833 240.167,407.167 239.5,409.5C 238.402,408.399 238.235,407.066 239,405.5C 239.236,403.881 240.069,402.881 241.5,402.5 Z"/></g>
<g><path style="opacity:0.18" fill="#727272" d="M 105.5,408.5 C 104.921,411.331 103.588,413.664 101.5,415.5C 102.079,412.669 103.412,410.336 105.5,408.5 Z"/></g>
<g><path style="opacity:0.286" fill="#9f9f9f" d="M 249.5,406.5 C 250.124,406.917 250.457,407.584 250.5,408.5C 248.899,413.47 247.399,418.47 246,423.5C 245.292,424.381 244.458,425.047 243.5,425.5C 245.5,419.167 247.5,412.833 249.5,406.5 Z"/></g>
<g><path style="opacity:0.157" fill="#686868" d="M 101.5,415.5 C 101.573,417.027 100.906,418.027 99.5,418.5C 99.427,416.973 100.094,415.973 101.5,415.5 Z"/></g>
<g><path style="opacity:0.149" fill="#5e5e5e" d="M 99.5,418.5 C 99.573,420.027 98.9063,421.027 97.5,421.5C 97.427,419.973 98.0937,418.973 99.5,418.5 Z"/></g>
<g><path style="opacity:0.212" fill="#464646" d="M 97.5,421.5 C 97.2503,423.674 96.2503,425.341 94.5,426.5C 94.7497,424.326 95.7497,422.659 97.5,421.5 Z"/></g>
<g><path style="opacity:0.259" fill="#959595" d="M 237.5,412.5 C 235.778,418.168 233.944,423.835 232,429.5C 231.617,430.056 231.117,430.389 230.5,430.5C 230.5,430.167 230.5,429.833 230.5,429.5C 232.906,424.828 233.906,419.995 233.5,415C 235.133,414.52 236.466,413.687 237.5,412.5 Z"/></g>
<g><path style="opacity:0.586" fill="#a5a5a5" d="M 94.5,429.5 C 139.833,429.5 185.167,429.5 230.5,429.5C 230.5,429.833 230.5,430.167 230.5,430.5C 189.727,431.426 148.727,431.759 107.5,431.5C 103.167,430.833 98.8333,430.167 94.5,429.5 Z"/></g>
<g><path style="opacity:0.569" fill="#a5a5a5" d="M 243.5,425.5 C 243.5,426.833 243.5,428.167 243.5,429.5C 297.5,429.5 351.5,429.5 405.5,429.5C 405.5,429.833 405.5,430.167 405.5,430.5C 352.221,431.446 299.055,431.779 246,431.5C 244.893,431.415 243.893,431.081 243,430.5C 242.22,428.613 242.387,426.946 243.5,425.5 Z"/></g>
<g><path style="opacity:0.055" fill="#4c4c4c" d="M 94.5,426.5 C 94.5,427.5 94.5,428.5 94.5,429.5C 98.8333,430.167 103.167,430.833 107.5,431.5C 102.821,431.666 98.1548,431.499 93.5,431C 92.4468,429.251 92.7801,427.751 94.5,426.5 Z"/></g>
</svg>
